<?xml version="1.0" encoding="UTF-8"?>
<!DOCTYPE svg PUBLIC "-//W3C//DTD SVG 1.1//EN" "http://www.w3.org/Graphics/SVG/1.1/DTD/svg11.dtd">
<svg xmlns="http://www.w3.org/2000/svg" xmlns:xlink="http://www.w3.org/1999/xlink">
    <symbol id="plyr-airplay" viewBox="0 0 18 18">
        <path d="M16 1H2a1 1 0 00-1 1v10a1 1 0 001 1h3v-2H3V3h12v8h-2v2h3a1 1 0 001-1V2a1 1 0 00-1-1z" />
        <path d="M4 17h10l-5-6z" />
    </symbol>
    <symbol id="plyr-captions-off" viewBox="0 0 18 18">
        <path
            d="M1 1c-.6 0-1 .4-1 1v11c0 .6.4 1 1 1h4.6l2.7 2.7c.2.2.4.3.7.3.3 0 .5-.1.7-.3l2.7-2.7H17c.6 0 1-.4 1-1V2c0-.6-.4-1-1-1H1zm4.52 10.15c1.99 0 3.01-1.32 3.28-2.41l-1.29-.39c-.19.66-.78 1.45-1.99 1.45-1.14 0-2.2-.83-2.2-2.34 0-1.61 1.12-2.37 2.18-2.37 1.23 0 1.78.75 1.95 1.43l1.3-.41C8.47 4.96 7.46 3.76 5.5 3.76c-1.9 0-3.61 1.44-3.61 3.7 0 2.26 1.65 3.69 3.63 3.69zm7.57 0c1.99 0 3.01-1.32 3.28-2.41l-1.29-.39c-.19.66-.78 1.45-1.99 1.45-1.14 0-2.2-.83-2.2-2.34 0-1.61 1.12-2.37 2.18-2.37 1.23 0 1.78.75 1.95 1.43l1.3-.41c-.28-1.15-1.29-2.35-3.25-2.35-1.9 0-3.61 1.44-3.61 3.7 0 2.26 1.65 3.69 3.63 3.69z"
            fill-rule="evenodd"
            fill-opacity=".5"
        />
    </symbol>
    <symbol id="plyr-captions-on" viewBox="0 0 18 18">
        <path
            d="M1 1c-.6 0-1 .4-1 1v11c0 .6.4 1 1 1h4.6l2.7 2.7c.2.2.4.3.7.3.3 0 .5-.1.7-.3l2.7-2.7H17c.6 0 1-.4 1-1V2c0-.6-.4-1-1-1H1zm4.52 10.15c1.99 0 3.01-1.32 3.28-2.41l-1.29-.39c-.19.66-.78 1.45-1.99 1.45-1.14 0-2.2-.83-2.2-2.34 0-1.61 1.12-2.37 2.18-2.37 1.23 0 1.78.75 1.95 1.43l1.3-.41C8.47 4.96 7.46 3.76 5.5 3.76c-1.9 0-3.61 1.44-3.61 3.7 0 2.26 1.65 3.69 3.63 3.69zm7.57 0c1.99 0 3.01-1.32 3.28-2.41l-1.29-.39c-.19.66-.78 1.45-1.99 1.45-1.14 0-2.2-.83-2.2-2.34 0-1.61 1.12-2.37 2.18-2.37 1.23 0 1.78.75 1.95 1.43l1.3-.41c-.28-1.15-1.29-2.35-3.25-2.35-1.9 0-3.61 1.44-3.61 3.7 0 2.26 1.65 3.69 3.63 3.69z"
            fill-rule="evenodd"
        />
    </symbol>
    <symbol id="plyr-download" viewBox="0 0 18 18"><path d="M9 13c.3 0 .5-.1.7-.3L15.4 7 14 5.6l-4 4V1H8v8.6l-4-4L2.6 7l5.7 5.7c.2.2.4.3.7.3zm-7 2h14v2H2z" /></symbol>
    <symbol id="plyr-enter-fullscreen" viewBox="0 0 18 18">
        <path d="M3.375 11.25H1.125V16.875H6.75V14.625H3.375V11.25ZM1.125 6.75H3.375V3.375H6.75V1.125H1.125V6.75ZM14.625 14.625H11.25V16.875H16.875V11.25H14.625V14.625ZM11.25 1.125V3.375H14.625V6.75H16.875V1.125H11.25Z"/>
    </symbol>
    <symbol id="plyr-exit-fullscreen" viewBox="0 0 18 18">
        <path d="M1 13.5714H4.42857V17H6.71429V11.2857H1V13.5714ZM4.42857 4.42857H1V6.71429H6.71429V1H4.42857V4.42857ZM11.2857 17H13.5714V13.5714H17V11.2857H11.2857V17ZM13.5714 4.42857V1H11.2857V6.71429H17V4.42857H13.5714Z"/>
    </symbol>
    <symbol id="plyr-fast-forward" viewBox="0 0 18 18"><path d="M7.875 7.171L0 1v16l7.875-6.171V17L18 9 7.875 1z" /></symbol>
    <symbol id="plyr-logo-vimeo" viewBox="0 0 18 18">
        <path
            d="M17 5.3c-.1 1.6-1.2 3.7-3.3 6.4-2.2 2.8-4 4.2-5.5 4.2-.9 0-1.7-.9-2.4-2.6C5 10.9 4.4 6 3 6c-.1 0-.5.3-1.2.8l-.8-1c.8-.7 3.5-3.4 4.7-3.5 1.2-.1 2 .7 2.3 2.5.3 2 .8 6.1 1.8 6.1.9 0 2.5-3.4 2.6-4 .1-.9-.3-1.9-2.3-1.1.8-2.6 2.3-3.8 4.5-3.8 1.7.1 2.5 1.2 2.4 3.3z"
        />
    </symbol>
    <symbol id="plyr-logo-youtube" viewBox="0 0 18 18">
        <path
            d="M16.8 5.8c-.2-1.3-.8-2.2-2.2-2.4C12.4 3 9 3 9 3s-3.4 0-5.6.4C2 3.6 1.3 4.5 1.2 5.8 1 7.1 1 9 1 9s0 1.9.2 3.2c.2 1.3.8 2.2 2.2 2.4C5.6 15 9 15 9 15s3.4 0 5.6-.4c1.4-.3 2-1.1 2.2-2.4.2-1.3.2-3.2.2-3.2s0-1.9-.2-3.2zM7 12V6l5 3-5 3z"
        />
    </symbol>
    <symbol id="plyr-muted" viewBox="0 0 18 18">
        <path d="M13 9C13 7.42667 12.0933 6.07556 10.7778 5.41778V7.38222L12.9556 9.56C12.9822 9.38222 13 9.19556 13 9V9ZM15.2222 9C15.2222 9.83556 15.0444 10.6178 14.7422 11.3467L16.0844 12.6889C16.6711 11.5867 17 10.3333 17 9C17 5.19556 14.3422 2.01333 10.7778 1.20444V3.03556C13.3467 3.8 15.2222 6.18222 15.2222 9ZM2.12889 1L1 2.12889L5.20444 6.33333H1V11.6667H4.55556L9 16.1111V10.1289L12.7778 13.9067C12.1822 14.3689 11.5156 14.7333 10.7778 14.9556V16.7867C12.0044 16.5111 13.1156 15.9422 14.0578 15.1778L15.8711 17L17 15.8711L9 7.87111L2.12889 1ZM9 1.88889L7.14222 3.74667L9 5.60444V1.88889Z"/>
    </symbol>
    <symbol id="plyr-pause" viewBox="0 0 18 18">
        <path d="M2 17H6.66667V1H2V17ZM11.3333 1V17H16V1H11.3333Z"/>
    </symbol>
    <symbol id="plyr-pip" viewBox="0 0 18 18">
        <path d="M13.293 3.293L7.022 9.564l1.414 1.414 6.271-6.271L17 7V1h-6z" />
        <path d="M13 15H3V5h5V3H2a1 1 0 00-1 1v12a1 1 0 001 1h12a1 1 0 001-1v-6h-2v5z" />
    </symbol>
    <symbol id="plyr-play" viewBox="0 0 18 18">
        <path d="M1.80005 18V0L16.2 9.01857L1.80005 18Z" fill="#fffff"/>
    </symbol>
    <symbol id="plyr-restart" viewBox="0 0 18 18">
        <path
            d="M9.7 1.2l.7 6.4 2.1-2.1c1.9 1.9 1.9 5.1 0 7-.9 1-2.2 1.5-3.5 1.5-1.3 0-2.6-.5-3.5-1.5-1.9-1.9-1.9-5.1 0-7 .6-.6 1.4-1.1 2.3-1.3l-.6-1.9C6 2.6 4.9 3.2 4 4.1 1.3 6.8 1.3 11.2 4 14c1.3 1.3 3.1 2 4.9 2 1.9 0 3.6-.7 4.9-2 2.7-2.7 2.7-7.1 0-9.9L16 1.9l-6.3-.7z"
        />
    </symbol>
    <symbol id="plyr-rewind" viewBox="0 0 18 18"><path d="M10.125 1L0 9l10.125 8v-6.171L18 17V1l-7.875 6.171z" /></symbol>
    <symbol id="plyr-settings" viewBox="0 0 18 18">
        <path
            d="M16.135 7.784a2 2 0 01-1.23-2.969c.322-.536.225-.998-.094-1.316l-.31-.31c-.318-.318-.78-.415-1.316-.094a2 2 0 01-2.969-1.23C10.065 1.258 9.669 1 9.219 1h-.438c-.45 0-.845.258-.997.865a2 2 0 01-2.969 1.23c-.536-.322-.999-.225-1.317.093l-.31.31c-.318.318-.415.781-.093 1.317a2 2 0 01-1.23 2.969C1.26 7.935 1 8.33 1 8.781v.438c0 .45.258.845.865.997a2 2 0 011.23 2.969c-.322.536-.225.998.094 1.316l.31.31c.319.319.782.415 1.316.094a2 2 0 012.969 1.23c.151.607.547.865.997.865h.438c.45 0 .845-.258.997-.865a2 2 0 012.969-1.23c.535.321.997.225 1.316-.094l.31-.31c.318-.318.415-.781.094-1.316a2 2 0 011.23-2.969c.607-.151.865-.547.865-.997v-.438c0-.451-.26-.846-.865-.997zM9 12a3 3 0 110-6 3 3 0 010 6z"
        />
    </symbol>
    <symbol id="plyr-volume" viewBox="0 0 18 18">
        <path d="M1 6.2634V11.7366H4.55556L9 16.2976V1.70239L4.55556 6.2634H1ZM13 9C13 7.3854 12.0933 5.99886 10.7778 5.32383V12.667C12.0933 12.0011 13 10.6146 13 9ZM10.7778 1V2.87913C13.3467 3.66363 15.2222 6.10832 15.2222 9C15.2222 11.8917 13.3467 14.3364 10.7778 15.1209V17C14.3422 16.1699 17 12.9042 17 9C17 5.09578 14.3422 1.8301 10.7778 1V1Z"/>
    </symbol>
</svg>
