<svg class="svg-icon" style="width: 1em; height: 1em;vertical-align: middle;fill: currentColor;overflow: hidden;" viewBox="0 0 1024 1024" version="1.1" xmlns="http://www.w3.org/2000/svg"><path d="M255.3 137.3c-59 0-107 48-107 107s48 107 107 107 107-48 107-107-48-107-107-107z m0 167.9c-33.6 0-61-27.4-61-61s27.4-61 61-61 61 27.4 61 61-27.4 61-61 61zM427.3 221.2h448.4v46H427.3zM255.3 417.6c-59 0-107 48-107 107s48 107 107 107 107-48 107-107-48-107-107-107z m0 168c-33.6 0-61-27.4-61-61s27.4-61 61-61 61 27.4 61 61-27.4 61-61 61zM427.3 501.6h448.4v46H427.3zM255.3 672.8c-59 0-107 48-107 107s48 107 107 107 107-48 107-107-48-107-107-107z m0 167.9c-33.6 0-61-27.4-61-61s27.4-61 61-61 61 27.4 61 61-27.4 61-61 61zM427.3 756.8h448.4v46H427.3z"  /></svg>