<svg class="svg-icon" style="width: 1em; height: 1em;vertical-align: middle;fill: currentColor;overflow: hidden;" viewBox="0 0 1024 1024" version="1.1" xmlns="http://www.w3.org/2000/svg"><path d="M758.1 234.8V179c0-25-20.3-45.3-45.3-45.3H486c-25 0-45.1 20.3-45.1 45.3v42.9H340.5c-109.1 0-197.8 88.7-197.8 197.8V695c0 109.1 88.7 197.8 197.8 197.8h347.1c109.1 0 197.8-88.7 197.8-197.8V419.6c0-83.1-50.7-155.8-127.3-184.8zM483.6 179c0-1.5 1-2.6 2.4-2.6h226.7c1.4 0 2.6 1.2 2.6 2.6v297.9l-99.1-42.5-16.8-7.2-16.8 7.2-99.1 42.5 0.1-297.9z m359.1 515.9c0 85.5-69.6 155.1-155.1 155.1H340.5c-85.5 0-155.1-69.6-155.1-155.1V419.6c0-85.5 69.6-155.1 155.1-155.1h100.4l-0.2 277.1 158.7-68 158.7 68V281.4c51.5 26.1 84.6 78.8 84.6 138.3v275.2z"  /></svg>