<svg xmlns="http://www.w3.org/2000/svg" xmlns:xlink="http://www.w3.org/1999/xlink" width="250" zoomAndPan="magnify" viewBox="0 0 187.5 187.499992" height="250" preserveAspectRatio="xMidYMid meet" version="1.0"><defs><clipPath id="df311b8b2d"><path d="M 2 39 L 186 39 L 186 169 L 2 169 Z M 2 39 " clip-rule="nonzero"/></clipPath><clipPath id="7768fba3ab"><path d="M -24.757812 103.894531 L 93.71875 -14.582031 L 212.199219 103.894531 L 93.71875 222.375 Z M -24.757812 103.894531 " clip-rule="nonzero"/></clipPath><clipPath id="e1912d1aed"><path d="M -24.757812 103.894531 L 93.71875 -14.582031 L 212.199219 103.894531 L 93.71875 222.375 Z M -24.757812 103.894531 " clip-rule="nonzero"/></clipPath><clipPath id="99a2a9f091"><path d="M 113.722656 40.945312 L 135.289062 40.945312 L 135.289062 62.511719 L 113.722656 62.511719 Z M 113.722656 40.945312 " clip-rule="nonzero"/></clipPath><clipPath id="6a2cb80869"><path d="M 124.503906 40.945312 C 118.550781 40.945312 113.722656 45.773438 113.722656 51.726562 C 113.722656 57.683594 118.550781 62.511719 124.503906 62.511719 C 130.460938 62.511719 135.289062 57.683594 135.289062 51.726562 C 135.289062 45.773438 130.460938 40.945312 124.503906 40.945312 Z M 124.503906 40.945312 " clip-rule="nonzero"/></clipPath></defs><g clip-path="url(#df311b8b2d)"><g clip-path="url(#7768fba3ab)"><g clip-path="url(#e1912d1aed)"><path fill="#000000" d="M 166.238281 58.421875 C 191.355469 83.539062 191.355469 124.257812 166.238281 149.375 C 141.121094 174.488281 100.402344 174.488281 75.289062 149.375 L 75.289062 149.371094 C 60.214844 134.304688 17.828125 116.347656 2.761719 131.414062 L 2.539062 131.191406 C 27.65625 106.078125 68.375 106.074219 93.492188 131.191406 L 93.488281 131.191406 C 108.558594 146.25 132.980469 146.25 148.046875 131.183594 C 163.117188 116.113281 163.117188 91.679688 148.050781 76.613281 C 132.980469 61.542969 108.550781 61.542969 93.480469 76.613281 L 93.476562 76.609375 C 68.359375 101.722656 27.644531 101.722656 2.527344 76.609375 L 2.75 76.386719 C 17.820312 91.457031 60.214844 73.488281 75.289062 58.417969 L 75.289062 58.421875 C 100.40625 33.304688 141.125 33.308594 166.238281 58.421875 Z M 166.238281 58.421875 " fill-opacity="1" fill-rule="nonzero"/></g></g></g><g clip-path="url(#99a2a9f091)"><g clip-path="url(#6a2cb80869)"><path fill="#000000" d="M 113.722656 40.945312 L 135.289062 40.945312 L 135.289062 62.511719 L 113.722656 62.511719 Z M 113.722656 40.945312 " fill-opacity="1" fill-rule="nonzero"/></g></g></svg>