<?xml version="1.0" encoding="utf-8"?>
<!-- Generator: Adobe Illustrator 25.3.1, SVG Export Plug-In . SVG Version: 6.00 Build 0)  -->
<svg version="1.1" id="Layer_1" xmlns="http://www.w3.org/2000/svg" xmlns:xlink="http://www.w3.org/1999/xlink" x="0px" y="0px"
	 viewBox="0 0 907.13 898" style="enable-background:new 0 0 907.13 898;" xml:space="preserve">
<style type="text/css">
	.st0{fill:#4A1484;}
	.st1{fill:url(#SVGID_1_);}
	.st2{fill:url(#SVGID_2_);}
	.st3{fill:url(#SVGID_3_);}
	.st4{fill:#F025BC;}
	.st5{fill:url(#SVGID_4_);}
	.st6{fill:url(#SVGID_5_);}
	.st7{fill:#69CFE5;}
	.st8{fill:#EB27AF;}
	.st9{fill:url(#SVGID_6_);}
	.st10{fill:url(#SVGID_7_);}
	.st11{fill:url(#SVGID_8_);}
	.st12{fill:url(#SVGID_9_);}
</style>
<path class="st0" d="M376.37,424.52"/>
<linearGradient id="SVGID_1_" gradientUnits="userSpaceOnUse" x1="54.1155" y1="-496.5631" x2="54.1155" y2="-496.5631">
	<stop  offset="0" style="stop-color:#E21FC3"/>
	<stop  offset="1" style="stop-color:#B60FE5"/>
</linearGradient>
<path class="st1" d="M54.12-496.56"/>
<linearGradient id="SVGID_2_" gradientUnits="userSpaceOnUse" x1="240.2423" y1="244.8217" x2="240.2423" y2="244.8217">
	<stop  offset="0" style="stop-color:#60CFE2"/>
	<stop  offset="0.1405" style="stop-color:#5FC9E1"/>
	<stop  offset="0.3275" style="stop-color:#5CB8DE"/>
	<stop  offset="0.5406" style="stop-color:#579DDA"/>
	<stop  offset="0.7713" style="stop-color:#5176D4"/>
	<stop  offset="1" style="stop-color:#4949CD"/>
</linearGradient>
<path class="st2" d="M240.24,244.82"/>
<path class="st0" d="M442.92,393.41"/>
<g>
	<g>
		<g>
			<g>
				<linearGradient id="SVGID_3_" gradientUnits="userSpaceOnUse" x1="511.9271" y1="226.0281" x2="601.3137" y2="226.0281">
					<stop  offset="0" style="stop-color:#E21FC3"/>
					<stop  offset="1" style="stop-color:#B60FE5"/>
				</linearGradient>
				<path class="st3" d="M556.62,211.52c22.93,0,41.8,17.19,44.37,39.32c0.2-1.69,0.32-3.41,0.32-5.15
					c0-24.56-20.01-44.47-44.69-44.47c-24.68,0-44.69,19.91-44.69,44.47c0,1.75,0.13,3.46,0.32,5.15
					C514.82,228.71,533.69,211.52,556.62,211.52z"/>
				<ellipse class="st4" cx="556.62" cy="250.84" rx="44.37" ry="39.32"/>
			</g>
			<linearGradient id="SVGID_4_" gradientUnits="userSpaceOnUse" x1="290.2706" y1="389.8501" x2="597.1942" y2="600.3845">
				<stop  offset="0" style="stop-color:#64CDE2"/>
				<stop  offset="0.2976" style="stop-color:#599BDA"/>
				<stop  offset="0.6163" style="stop-color:#4F6BD2"/>
				<stop  offset="0.8609" style="stop-color:#494ECD"/>
				<stop  offset="1" style="stop-color:#4743CB"/>
			</linearGradient>
			<path class="st5" d="M255.57,207.35c-43.79,33.35-67.5,67.98-75.35,80.03c-22.43,34.48-32.9,65.76-37.58,82.07
				c-13.7,47.71-12.88,89.36-9.97,116.59c12.77,119.68,101.49,192.54,108.15,197.89c85.22,68.44,202.2,81.73,297.8,43.14
				c77.84-31.42,154.05-102.31,170.09-188.88c2.28-12.3,8.15-46.78-3.84-87.95c-5.19-17.83-19.61-67.33-68.2-95.48
				c-33.26-19.27-66.45-19.22-82.54-18.01c7.08,0.49,20.9,2.44,33.76,11.99c0,0,13.04,9.69,20.84,27.87
				c13.6,31.71,26.74,148.8-53.93,220.08c-7.34,6.49-35.64,30.43-80.35,41.86c-21.22,5.43-63.54,12.54-110.14-3.32
				c-93.75-31.92-123.06-128.14-124.26-132.31c-19.75-68.9-0.06-142.89,47.56-192.52c45.08-46.99,100.6-56.93,119.27-59.44
				c2.7-0.45,34.74-6.3,44.87-32.21c7.18-18.38,1.23-43.71-14.96-57.14c-11.1-9.21-24.31-10.64-34.05-10.95
				C336.2,148.55,272.93,194.13,255.57,207.35z"/>
			<linearGradient id="SVGID_5_" gradientUnits="userSpaceOnUse" x1="502.8344" y1="350.0445" x2="719.1913" y2="716.5786">
				<stop  offset="0" style="stop-color:#E21FC3"/>
				<stop  offset="1" style="stop-color:#B60FE5"/>
			</linearGradient>
			<path class="st6" d="M704.06,557.58c-0.02,0.09-0.14,0.24-0.1,0.29c0,0,0.01,0.01,0.03,0.02c0.12,0.02,26.45-66.46,20.05-138.2
				c-1.81-20.32-6.1-62.6-35.28-105.47c-24.6-36.14-55.37-55.78-72.87-65.2c-2.3,31.12-27.93,55.32-57.91,55.99
				c-31.77,0.71-59.5-25.2-60.72-58.29c-14.56,7.2-36.57,20.26-56.25,42.95c-73.01,84.23-36.48,212.01-29.13,237.71
				c19.87,69.51,57.86,112.56,70.11,125.66c16.66,17.81,43.03,45.42,86.99,63.27c61.34,24.9,116.31,14.14,140.36,9.39
				c64.27-12.71,152-54.83,150.85-100.84c-0.46-18.49-15.33-40.3-36.43-46.02c-26.28-7.12-49.41,14.22-51.39,16.11
				c-13.31,8.56-32.32,18.76-56.63,25.93c-18.57,5.47-35.27,7.71-48.63,8.52c-15.15,0.61-63.44,0.62-105.8-33.19
				c-42.11-33.61-51.59-79.28-57.98-110.05c-6.54-31.48-21.83-105.15,18.99-136.65c30.5-23.54,74.94-10.1,85.52-6.9
				c65.02,19.65,94.24,88.63,100.86,123.87c3.4,18.11,4.04,44.37,1.92,57.91C709.63,530.7,705.4,551.12,704.06,557.58z"/>
			<path class="st7" d="M46.93,626.03"/>
			<path class="st8" d="M316.43,497.69"/>
		</g>
		<linearGradient id="SVGID_6_" gradientUnits="userSpaceOnUse" x1="238.309" y1="264.2932" x2="502.1644" y2="722.9719">
			<stop  offset="0" style="stop-color:#60CFE2"/>
			<stop  offset="0.1379" style="stop-color:#5FC9E1"/>
			<stop  offset="0.3215" style="stop-color:#5CB8DE"/>
			<stop  offset="0.5308" style="stop-color:#579DDA"/>
			<stop  offset="0.7591" style="stop-color:#5076D3"/>
			<stop  offset="1" style="stop-color:#4745CB"/>
		</linearGradient>
		<path class="st9" d="M274.06,258.46c-71.53,70.99-106.01,182.8-74.44,279.23c42.15,128.72,197.1,215.05,362.23,178.79
			c-22.29,10.72-57.59,24.52-102.74,29.27c-21.8,2.29-87.68,8.38-159.38-25.27c-112.1-52.62-149.16-160.48-154.22-176
			c-28.15-86.45-7.82-160.64,1.05-187.62c14.23-40.37,41.53-95.05,94.89-138.53c55.32-45.08,154.75-91.23,195.34-56.75
			c5.79,4.92,9.34,10.59,11.56,15.1C420.6,179.83,340.44,192.58,274.06,258.46z"/>
	</g>
	<linearGradient id="SVGID_7_" gradientUnits="userSpaceOnUse" x1="609.4659" y1="627.8318" x2="618.8015" y2="603.3792">
		<stop  offset="0" style="stop-color:#2E2D95"/>
		<stop  offset="0.1596" style="stop-color:#2426A7;stop-opacity:0.8404"/>
		<stop  offset="0.5136" style="stop-color:#101AC9;stop-opacity:0.4864"/>
		<stop  offset="0.8065" style="stop-color:#0412DD;stop-opacity:0.1935"/>
		<stop  offset="1" style="stop-color:#000FE5;stop-opacity:0"/>
	</linearGradient>
	<path class="st10" d="M667.1,629.4c4.71-7,9.42-13.99,14.13-20.99c-12.51,0.56-32.09-0.06-54.6-7.28
		c-23.54-7.54-40.38-19.12-50.31-27.12c-3.1,3.6-6.2,7.2-9.31,10.8c-2.95,2.94-5.9,5.88-8.85,8.82c9.63,7.92,24.44,18.2,44.47,25.78
		C629.37,629.52,653.02,630.14,667.1,629.4z"/>
	<linearGradient id="SVGID_8_" gradientUnits="userSpaceOnUse" x1="513.6448" y1="670.554" x2="497.3057" y2="689.3103">
		<stop  offset="0.1233" style="stop-color:#2E2D95"/>
		<stop  offset="0.2818" style="stop-color:#2225A9;stop-opacity:0.8192"/>
		<stop  offset="0.5808" style="stop-color:#1019CA;stop-opacity:0.4781"/>
		<stop  offset="0.831" style="stop-color:#0412DE;stop-opacity:0.1928"/>
		<stop  offset="1" style="stop-color:#000FE5;stop-opacity:0"/>
	</linearGradient>
	<path class="st11" d="M470.21,639.58c-3.95,0.92-8.14,1.77-12.57,2.51c-3.67,0.62-7.21,1.11-10.6,1.5
		c-0.28,3.03-0.43,7.49,0.48,12.72c1.87,10.74,7.62,21.46,23.78,36.05c20.12,18.15,42.41,29.69,60.03,36.88
		c5.15-1.36,11.02-3.26,17.31-5.94c6.43-2.74,11.95-5.72,16.57-8.55c-16.13-7.44-36.71-18.93-57.78-36.62
		C491.53,664.78,479.33,651.24,470.21,639.58z"/>
	<path class="st0" d="M554.13,336.75c5.39,0.24,19.76,1.58,33.76,11.99c13.49,10.03,18.96,22.77,20.84,27.87
		c14.9,6.09,33.14,16.06,49.93,32.73c55.41,54.99,47.01,135.12,45.42,148.29c4.34-14.44,9.9-38.96,7.43-69.03
		c-1.3-15.86-10.25-99.22-78.75-136.02C620.97,346.24,593.96,334.06,554.13,336.75z"/>
	<linearGradient id="SVGID_9_" gradientUnits="userSpaceOnUse" x1="453.5255" y1="271.9757" x2="727.8099" y2="736.6458">
		<stop  offset="0" style="stop-color:#F164CC"/>
		<stop  offset="0.1858" style="stop-color:#EC5ECD"/>
		<stop  offset="0.4329" style="stop-color:#DF4DD1"/>
		<stop  offset="0.7145" style="stop-color:#C932D7"/>
		<stop  offset="1" style="stop-color:#AC0EDF"/>
	</linearGradient>
	<path class="st12" d="M511.58,283.8c-12.28,7.8-31.76,22.5-46.98,47.11c-3.64,5.89-18.67,31.16-22.05,77.65
		c-6.25,86.1,34.13,153.63,36.82,158.01c7.58,12.31,70.89,111.84,174.15,118.56c0,0,70.48,4.59,154.68-42.24
		c0.45-0.25,0.89-0.5,0.89-0.5c25.11-14.29,36.35-30.9,41.91-43.42c3.34,4.54,9.06,13.75,9.2,25.89c0.08,6.4-1.37,15.98-10.55,28.76
		c-24.98,34.79-79.25,54.34-94.92,59.83c-42.84,15.01-75.79,17.38-82.92,17.83c-11.36,0.72-40.73,2.42-71.64-4.41
		c-74.32-16.42-119.6-74.09-137.19-96.53c-9.93-12.66-53.45-70.28-63.13-157.86c-4.43-40.03-12.76-115.44,35.79-176.48
		c20.93-26.31,45.48-41.22,61.62-49.28c0.23,4.72,1.08,11.52,3.96,19.18C504.3,274.07,508.48,280.04,511.58,283.8z"/>
</g>
</svg>
