<svg xmlns="http://www.w3.org/2000/svg" xmlns:xlink="http://www.w3.org/1999/xlink" width="1024" zoomAndPan="magnify" viewBox="0 0 768 767.999994" height="1024" preserveAspectRatio="xMidYMid meet" version="1.0"><defs><clipPath id="6a78a4b181"><path d="M 9 110 L 761 110 L 761 640 L 9 640 Z M 9 110 " clip-rule="nonzero"/></clipPath><clipPath id="0a50d6c37a"><path d="M -102.90625 374.925781 L 383.9375 -111.914062 L 870.777344 374.925781 L 383.9375 861.769531 Z M -102.90625 374.925781 " clip-rule="nonzero"/></clipPath><clipPath id="23fdf9fc8a"><path d="M -102.90625 374.925781 L 383.9375 -111.914062 L 870.777344 374.925781 L 383.9375 861.769531 Z M -102.90625 374.925781 " clip-rule="nonzero"/></clipPath><clipPath id="7bf4c29768"><path d="M 444.828125 125.929688 L 530.132812 125.929688 L 530.132812 211.234375 L 444.828125 211.234375 Z M 444.828125 125.929688 " clip-rule="nonzero"/></clipPath><clipPath id="f1396eee07"><path d="M 487.480469 125.929688 C 463.921875 125.929688 444.828125 145.027344 444.828125 168.582031 C 444.828125 192.140625 463.921875 211.234375 487.480469 211.234375 C 511.035156 211.234375 530.132812 192.140625 530.132812 168.582031 C 530.132812 145.027344 511.035156 125.929688 487.480469 125.929688 Z M 487.480469 125.929688 " clip-rule="nonzero"/></clipPath></defs><g clip-path="url(#6a78a4b181)"><g clip-path="url(#0a50d6c37a)"><g clip-path="url(#23fdf9fc8a)"><path fill="#000000" d="M 683.308594 187.738281 C 786.699219 291.125 786.6875 458.738281 683.296875 562.128906 C 579.917969 665.507812 412.296875 665.507812 308.917969 562.128906 L 308.925781 562.117188 C 246.871094 500.101562 72.386719 426.1875 10.367188 488.203125 L 9.457031 487.289062 C 112.84375 383.902344 280.457031 383.890625 383.847656 487.28125 L 383.835938 487.289062 C 445.863281 549.277344 546.402344 549.265625 608.417969 487.25 C 670.457031 425.210938 670.457031 324.644531 608.429688 262.617188 C 546.402344 200.589844 445.832031 200.589844 383.804688 262.617188 L 383.796875 262.605469 C 280.394531 365.984375 112.792969 365.984375 9.414062 262.605469 L 10.328125 261.691406 C 72.355469 323.71875 246.878906 249.765625 308.917969 187.726562 L 308.925781 187.738281 C 412.316406 84.347656 579.929688 84.359375 683.308594 187.738281 Z M 683.308594 187.738281 " fill-opacity="1" fill-rule="nonzero"/></g></g></g><g clip-path="url(#7bf4c29768)"><g clip-path="url(#f1396eee07)"><path fill="#000000" d="M 444.828125 125.929688 L 530.132812 125.929688 L 530.132812 211.234375 L 444.828125 211.234375 Z M 444.828125 125.929688 " fill-opacity="1" fill-rule="nonzero"/></g></g></svg>