<svg class="svg-icon" style="width: 1.0009765625em; height: 1em;vertical-align: middle;fill: currentColor;overflow: hidden;" viewBox="0 0 1025 1024" version="1.1" xmlns="http://www.w3.org/2000/svg"><path d="M858.3 80.5H387.8c-40.4-43.2-135.4-67-188.8-67-94.9 0-175.7 70.5-188.8 164.3-5.6 16-8.3 31.3-8.3 46.7V828c0 98.7 80.3 179.1 179.1 179.1h695.4c82 0 148.7-66.7 148.7-148.7v-611c0-92.1-74.8-166.9-166.8-166.9z m0 30.4c60 0 110.5 39.2 128.7 93.2H628.8l-183.4-93.2h412.9z m136.5 747.4c0 65.3-53.1 118.4-118.4 118.4H181C99 976.8 32.2 910 32.2 828V224.5c0-12.3 2.3-24.7 7-38l0.8-3.2c10.5-79.4 78.7-139.4 159-139.4 56.2 0 142.8 26.7 170 61.2l4.6 5.8h2.6l242.2 120.3h374.8c0.6 5.3 1.6 10.6 1.6 16.1v611z" fill="" /><path d="M203 840h790.7v27.8H203zM110.2 840h30.3v30.3h-30.3zM368.1 580.1l-20.3 111.2c-1.9 10.7 2.3 21.3 11 27.8 8.8 6.5 20.1 7.4 29.8 2.5l98.7-51.6 99.5 53.6c4.3 2.3 8.9 3.4 13.5 3.4 5.7 0 11.5-1.8 16.4-5.3 8.8-6.3 13.3-16.8 11.6-27.6l-18.6-109.8 81.8-78c7.8-7.5 10.7-18.6 7.5-29-3.3-10.4-12-17.8-22.7-19.5l-110.2-16.3-49-101.9c-4.7-9.8-14.4-15.9-25.2-16.1-9.7-0.5-20.7 5.8-25.6 15.5l-49.6 99.7-112 15.1c-10.7 1.5-19.6 8.8-23.1 19.1s-0.8 21.4 6.9 29.1l79.6 78.1z m52.7-111.2c9.2-1.2 17.2-6.9 21.5-15.3l49.2-97.2 47.2 98.3c4.1 8.4 12 14.3 21.2 15.7l107.7 16.8-78.8 75.2c-6.7 6.4-9.9 15.7-8.4 25l18.5 108.3-97.2-52.4c-4.2-2.3-8.8-3.4-13.4-3.4-4.4 0-8.9 1-13 3.1l-97 49.7 19.6-107.3c1.7-9.2-1.3-18.6-7.9-25.1l-77.2-76.9 108-14.5z" fill="" /></svg>