<svg class="svg-icon" style="width: 1em; height: 1em;vertical-align: middle;fill: currentColor;overflow: hidden;" viewBox="0 0 1024 1024" version="1.1" xmlns="http://www.w3.org/2000/svg"><path d="M819.2 1024c-3.413333 0-10.24-3.413333-13.653333-3.413333L512 723.626667l-293.546667 293.546666c-6.826667 6.826667-13.653333 6.826667-20.48 6.826667-6.826667-3.413333-10.24-10.24-10.24-17.066667V102.4c0-58.026667 44.373333-102.4 102.4-102.4h443.733334c58.026667 0 102.4 44.373333 102.4 102.4v904.533333c0 6.826667-3.413333 13.653333-10.24 17.066667H819.2z m-307.2-341.333333c3.413333 0 10.24 0 13.653333 3.413333l276.48 276.48V102.4c0-37.546667-30.72-68.266667-68.266666-68.266667h-443.733334c-37.546667 0-68.266667 30.72-68.266666 68.266667v863.573333l276.48-276.48c3.413333-6.826667 10.24-6.826667 13.653333-6.826666z" fill="" /></svg>