<?xml version="1.0" encoding="iso-8859-1"?>
<!-- Generator: Adobe Illustrator 19.0.0, SVG Export Plug-In . SVG Version: 6.00 Build 0)  -->
<svg version="1.1" id="Layer_1" xmlns="http://www.w3.org/2000/svg" xmlns:xlink="http://www.w3.org/1999/xlink" x="0px" y="0px"
	 viewBox="0 0 506.543 506.543" style="enable-background:new 0 0 506.543 506.543;" xml:space="preserve">
<g transform="translate(0 -1)">
	<path style="fill:#955BA5;" d="M235.307,189.633c0,0-112.658-170.667-188.632-170.667c0,0-11.264-0.467-15.944,21.989
		c-2.344,11.192-1.491,22.762,1.464,33.801c0.072,0.278,0.144,0.557,0.216,0.844c5.003,19.151,4.851,39.217,0.79,58.593
		c-2.246,10.716-4.491,26.435-4.491,46.457c0,0-3.746,35.93,35.93,35.93h170.667V189.633z"/>
	<path style="fill:#894B9D;" d="M91.587,216.581c0,0-26.48,21.522-42.316,47.149c-9.189,14.866-11.74,32.903-8.309,50.032
		l0.665,3.377c2.865,14.273,1.428,29.094-4.473,42.397c-0.476,1.078-0.952,2.201-1.428,3.359
		c-5.892,14.552-5.839,30.693-1.689,45.837c0.575,2.093,1.132,4.482,1.626,7.195c2.416,13.222-0.485,26.768-6.952,38.544
		c-4.491,8.192-8.982,19.42-8.982,31.582c0,0,0,0.108,0.009,0.305c0.566,16.025,17.767,26.022,32.085,18.791
		c9.593-4.833,22.052-10.114,30.783-10.114c0,0,19.725-0.566,31.304,5.65c4.662,2.497,9.908,3.907,15.091,2.847
		c19.537-3.988,61.952-27.531,88.342-152.217l17.965-134.737H91.587z"/>
	<path style="fill:#955BA5;" d="M271.236,189.633c0,0,112.658-170.667,188.632-170.667c0,0,11.264-0.467,15.944,21.989
		c2.344,11.192,1.491,22.762-1.464,33.801c-0.072,0.278-0.144,0.557-0.216,0.844c-5.003,19.151-4.851,39.217-0.79,58.593
		c2.246,10.716,4.491,26.435,4.491,46.457c0,0,3.746,35.93-35.93,35.93H271.236V189.633z"/>
	<path style="fill:#894B9D;" d="M414.956,216.581c0,0,26.48,21.522,42.316,47.149c9.189,14.866,11.74,32.903,8.309,50.032
		l-0.665,3.377c-2.865,14.273-1.428,29.094,4.473,42.397c0.476,1.078,0.952,2.201,1.428,3.359
		c5.892,14.552,5.839,30.693,1.689,45.837c-0.575,2.093-1.132,4.482-1.626,7.195c-2.416,13.222,0.485,26.768,6.952,38.544
		c4.491,8.192,8.982,19.42,8.982,31.582c0,0,0,0.108-0.009,0.305c-0.566,16.025-17.767,26.022-32.085,18.791
		c-9.593-4.833-22.052-10.114-30.783-10.114c0,0-19.725-0.566-31.304,5.65c-4.662,2.497-9.908,3.907-15.091,2.847
		c-19.537-3.988-61.952-27.531-88.342-152.217l-17.965-134.737H414.956z"/>
	<g>
		<path style="fill:#6B367F;" d="M289.201,283.989c0,76.917-16.088,139.264-35.93,139.264s-35.93-62.347-35.93-139.264
			s16.088-139.264,35.93-139.264S289.201,207.072,289.201,283.989"/>
		<path style="fill:#6B367F;" d="M136.5,414.274c0,14.884-12.063,26.947-26.947,26.947s-26.947-12.063-26.947-26.947
			s12.063-26.947,26.947-26.947S136.5,399.39,136.5,414.274"/>
		<path style="fill:#6B367F;" d="M172.429,297.502c0,14.884-12.063,26.947-26.947,26.947s-26.947-12.063-26.947-26.947
			s12.063-26.947,26.947-26.947S172.429,282.618,172.429,297.502"/>
		<path style="fill:#6B367F;" d="M370.043,414.274c0,14.884,12.063,26.947,26.947,26.947s26.947-12.063,26.947-26.947
			s-12.063-26.947-26.947-26.947S370.043,399.39,370.043,414.274"/>
		<path style="fill:#6B367F;" d="M334.114,297.502c0,14.884,12.063,26.947,26.947,26.947s26.947-12.063,26.947-26.947
			s-12.063-26.947-26.947-26.947S334.114,282.618,334.114,297.502"/>
	</g>
	<g>
		<path style="fill:#95A5A5;" d="M235.298,90.905c-4.419,0-8.273-3.261-8.893-7.77c-0.09-0.656-10.006-66.524-44.418-64.099
			c-5.084,0.243-9.225-3.44-9.539-8.399c-0.314-4.949,3.44-9.216,8.39-9.539C181.888,1.036,182.921,1,183.927,1
			c48.927,0,59.832,76.405,60.281,79.719c0.665,4.922-2.776,9.441-7.689,10.105C236.106,90.878,235.702,90.905,235.298,90.905"/>
		<path style="fill:#95A5A5;" d="M271.245,90.905c-0.404,0-0.808-0.027-1.222-0.081c-4.913-0.665-8.354-5.183-7.689-10.105
			c0.458-3.386,11.74-82.881,63.371-79.62c4.949,0.323,8.704,4.59,8.39,9.539c-0.314,4.958-4.554,8.65-9.539,8.399
			c-34.026-2.12-44.328,63.443-44.418,64.099C279.518,87.645,275.665,90.905,271.245,90.905"/>
	</g>
	<path style="fill:#894B9D;" d="M289.201,117.853c0,19.842-16.088,35.93-35.93,35.93s-35.93-16.088-35.93-35.93
		s16.088-35.93,35.93-35.93S289.201,98.011,289.201,117.853"/>
</g>
<g>
</g>
<g>
</g>
<g>
</g>
<g>
</g>
<g>
</g>
<g>
</g>
<g>
</g>
<g>
</g>
<g>
</g>
<g>
</g>
<g>
</g>
<g>
</g>
<g>
</g>
<g>
</g>
<g>
</g>
</svg>
