<svg class="svg-icon" style="width: 1.0009765625em; height: 1em;vertical-align: middle;fill: currentColor;overflow: hidden;" viewBox="0 0 1025 1024" version="1.1" xmlns="http://www.w3.org/2000/svg"><path d="M1024.073143 405.723429l0 453.705143q0 37.741714-26.843429 64.585143t-64.585143 26.843429l-841.142857 0q-37.741714 0-64.585143-26.843429t-26.843429-64.585143l0-453.705143q25.161143 28.013714 57.709714 49.737143 206.848 140.580571 284.013714 197.12 32.548571 23.990857 52.882286 37.449143t53.979429 27.428571 62.829714 13.970286l1.170286 0q29.110857 0 62.829714-13.970286t53.979429-27.428571 52.882286-37.449143q97.133714-70.290286 284.598857-197.12 32.548571-22.308571 57.124571-49.737143zM1024.073143 237.714286q0 45.129143-28.013714 86.308571t-69.705143 70.290286q-214.820571 149.138286-267.410286 185.709714-5.705143 4.022857-24.283429 17.408t-30.866286 21.723429-29.696 18.578286-32.841143 15.433143-28.598857 5.12l-1.170286 0q-13.165714 0-28.598857-5.12t-32.841143-15.433143-29.696-18.578286-30.866286-21.723429-24.283429-17.408q-52.004571-36.571429-149.723429-104.301714t-117.174857-81.408q-35.401143-23.990857-66.852571-65.974857t-31.451429-77.970286q0-44.544 23.698286-74.313143t67.730286-29.696l841.142857 0q37.156571 0 64.292571 26.843429t27.136 64.585143z"  /></svg>