<svg class="svg-icon" style="width: 1em;height: 1em;vertical-align: middle;fill: currentColor;overflow: hidden;" viewBox="0 0 1024 1024" version="1.1" xmlns="http://www.w3.org/2000/svg"><path d="M173.421714 881.206857h689.993143c77.165714 0 121.728-44.562286 121.728-132.845714V275.2c0-87.862857-44.982857-132.425143-134.582857-132.425143H160.585143c-76.708571 0-121.709714 44.141714-121.709714 132.425143v473.142857c0 88.704 45.421714 132.845714 134.582857 132.845714z m287.579429-347.556571L137.435429 214.363429c9.417143-3.858286 20.553143-6.016 33.846857-6.016h681.874285c13.275429 0 24.850286 2.157714 34.706286 6.875428L564.717714 533.650286c-18.432 18.413714-34.724571 26.569143-51.858285 26.569143-17.152 0-33.426286-8.155429-51.858286-26.569143zM104.411429 748.361143V275.2v-4.297143l246.418285 241.737143L104.850286 755.620571c-0.420571-2.139429-0.420571-4.717714-0.420572-7.277714z m815.140571-472.722286v478.72L674.852571 512.64 919.588571 272.219429v3.419428zM171.282286 815.652571c-12.434286 0-22.710857-1.718857-31.707429-5.577142l256.274286-253.293715 27.867428 27.428572c29.988571 29.568 58.697143 42.002286 89.142858 42.002285 29.988571 0 59.136-12.434286 89.142857-42.002285l27.849143-27.428572 255.872 252.854857c-9.014857 4.297143-20.150857 5.997714-32.585143 5.997715z"  /></svg>