<svg height="512" viewBox="0 0 64 64" width="512" stroke-width="0" style="fill:var(--smc-main-link-color);" xmlns="http://www.w3.org/2000/svg"><g id="Layer_53" data-name="Layer 53"><path d="m54.923 41.6a22.995 22.995 0 1 0 -37.587-24.282 23 23 0 0 0 -8.259 38.282l-4.777 4.687a1 1 0 0 0 .7 1.713h20a23.033 23.033 0 0 0 21.164-14h12.836a1 1 0 0 0 .7-1.713zm-29.923 18.4h-17.554l3.784-3.717a1 1 0 0 0 -.042-1.466 21 21 0 1 1 13.812 5.183zm21.907-14a22.985 22.985 0 0 0 -27.153-29.389 21 21 0 1 1 33.058 24.206 1 1 0 0 0 -.042 1.466l3.784 3.717z"/><path d="m24 36a3 3 0 1 0 3 3 3 3 0 0 0 -3-3zm0 4a1 1 0 1 1 1-1 1 1 0 0 1 -1 1z"/><path d="m34 36a3 3 0 1 0 3 3 3 3 0 0 0 -3-3zm0 4a1 1 0 1 1 1-1 1 1 0 0 1 -1 1z"/><path d="m14 36a3 3 0 1 0 3 3 3 3 0 0 0 -3-3zm0 4a1 1 0 1 1 1-1 1 1 0 0 1 -1 1z"/></g></svg>