<?xml version="1.0" encoding="iso-8859-1"?>
<!-- Uploaded to: SVG Repo, www.svgrepo.com, Generator: SVG Repo Mixer Tools -->
<!DOCTYPE svg PUBLIC "-//W3C//DTD SVG 1.1//EN" "http://www.w3.org/Graphics/SVG/1.1/DTD/svg11.dtd">
<svg fill="#000000" version="1.1" id="Capa_1" xmlns="http://www.w3.org/2000/svg" xmlns:xlink="http://www.w3.org/1999/xlink" 
	 width="800px" height="800px" viewBox="0 0 183.589 183.589"
	 xml:space="preserve">
<g>
	<path d="M91.794,0C41.178,0,0,41.178,0,91.794c0,50.62,41.178,91.794,91.794,91.794c50.62,0,91.794-41.175,91.794-91.794
		C183.589,41.178,142.402,0,91.794,0z M91.794,171.483c-43.941,0-79.689-35.748-79.689-79.689s35.748-79.689,79.689-79.689
		s79.689,35.748,79.689,79.689S135.729,171.483,91.794,171.483z M96.287,80.416l-1.715-0.553V53.342
		c3.89,0.322,6.715,1.374,8.5,3.153c2.246,2.24,3.369,5.938,3.369,11.106h17.957c0-9.229-2.838-16.361-8.5-21.385
		c-5.119-4.519-12.229-7.013-21.314-7.468v-9.664h-6.377v9.871c-8.316,0.502-15.031,3.038-20.15,7.607
		c-5.849,5.254-8.771,12.359-8.771,21.311c0,7.312,2.42,13.184,7.276,17.614c4.471,4.067,11.688,7.678,21.645,10.829v29.335
		c-3.656-0.55-6.484-1.915-8.5-4.114c-2.56-2.884-3.697-7.306-3.419-13.293H57.234l-0.074,2.465c0,9.505,2.695,16.774,8.095,21.799
		c5.391,5.024,13.042,7.838,22.958,8.435v13.565h6.377v-13.643c9.269-0.396,16.77-3.103,22.479-8.086
		c6.26-5.426,9.398-12.755,9.398-21.999c0-7.903-2.293-14.145-6.874-18.714C115.006,87.456,107.233,83.569,96.287,80.416z
		 M88.192,77.674c-2.796-1.138-5.009-2.355-6.676-3.633c-2.976-2.287-4.46-5.071-4.46-8.363c0-3.928,1.301-6.989,3.916-9.188
		c1.889-1.599,4.279-2.604,7.214-3.015L88.192,77.674L88.192,77.674z M103.421,122.152c-2.281,2.009-5.243,3.197-8.849,3.569V98.313
		c4.256,1.378,7.342,2.985,9.257,4.865c2.529,2.34,3.782,5.302,3.782,8.913C107.611,116.371,106.211,119.729,103.421,122.152z"/>
</g>
</svg>