<svg xmlns="http://www.w3.org/2000/svg" shape-rendering="geometricPrecision" text-rendering="geometricPrecision" image-rendering="optimizeQuality" fill-rule="evenodd" clip-rule="evenodd" viewBox="0 0 512 512"><path d="M256 0c70.69 0 134.7 28.66 181.02 74.98C483.34 121.3 512 185.31 512 256c0 70.69-28.66 134.7-74.98 181.02C390.7 483.34 326.69 512 256 512c-70.69 0-134.7-28.66-181.02-74.98C28.66 390.7 0 326.69 0 256c0-70.69 28.66-134.7 74.98-181.02C121.3 28.66 185.31 0 256 0zm29.61 219.44c-.58-6.58-3.22-11.65-7.91-15.34-3.25-2.54-7.49-4.21-12.69-4.98v38.15l9.46 2.15c9.01 1.97 17.01 4.56 23.96 7.83 6.92 3.27 12.73 7.21 17.47 11.73 4.73 4.48 8.34 9.72 10.77 15.58 2.42 5.91 3.68 12.53 3.76 19.81-.08 11.57-3.01 21.45-8.75 29.75-5.78 8.25-14.07 14.61-24.88 19.01-9.02 3.69-19.63 5.82-31.79 6.41v20.69h-14.67v-20.7c-12.21-.63-23.06-2.84-32.54-6.69-11.39-4.57-20.23-11.52-26.52-20.86-6.32-9.34-9.55-21.15-9.72-35.44h42.31c.34 5.87 1.93 10.81 4.69 14.7 2.81 3.94 6.67 6.91 11.56 8.93 3.12 1.29 6.52 2.16 10.22 2.64v-40.27l-13.11-3.05c-15.83-3.64-28.27-9.5-37.4-17.63-9.09-8.12-13.61-19.11-13.57-32.97-.04-11.31 3.01-21.23 9.13-29.74 6.11-8.5 14.58-15.12 25.43-19.89 8.85-3.87 18.67-6.17 29.52-6.88v-20.6h14.67v20.56c11.18.69 21.11 3.01 29.74 6.96 10.47 4.82 18.55 11.52 24.34 20.14 5.78 8.64 8.7 18.6 8.83 30h-42.31zm-35.27-20.32c-2.55.36-4.85.94-6.86 1.72-3.82 1.5-6.66 3.56-8.55 6.12-1.92 2.59-2.89 5.57-2.97 8.88-.09 2.76.46 5.15 1.68 7.24 1.21 2.1 3.01 3.9 5.35 5.49 2.35 1.59 5.2 2.98 8.51 4.15.92.32 1.87.63 2.84.94v-34.54zm14.67 113.57c2.72-.39 5.2-1.03 7.45-1.9 4.19-1.58 7.42-3.8 9.68-6.66 2.26-2.89 3.43-6.15 3.47-9.84-.04-3.44-1.13-6.41-3.22-8.88-2.1-2.47-5.28-4.61-9.59-6.41-2.28-.97-4.87-1.89-7.79-2.77v36.46zm192-49.24c-.47 12.83-2.14 25.33-4.88 37.4l38.18 10.24c3.6-15.37 5.73-31.3 6.22-47.64h-39.52zm-8.73 51.77c-3.74 12.16-8.6 23.83-14.46 34.88l34.24 19.77a239.81 239.81 0 0018.41-44.42l-38.19-10.23zm-21.89 47.72a201.651 201.651 0 01-23.15 30.1l27.98 27.9a241.574 241.574 0 0029.41-38.24l-34.24-19.76zm-33.62 40.55c-9.19 8.52-19.19 16.2-29.82 22.89l19.77 34.24a241.637 241.637 0 0038.1-29.28l-28.05-27.85zm-42.68 30.33a200.22 200.22 0 01-34.87 14.47l10.24 38.18a238.265 238.265 0 0044.4-18.41l-19.77-34.24zm-49.24 18.31c-12.08 2.76-24.6 4.41-37.4 4.89v39.51c16.34-.49 32.27-2.62 47.63-6.22l-10.23-38.18zm-52.3 4.89c-12.82-.48-25.32-2.15-37.4-4.89l-10.23 38.18c15.36 3.6 31.29 5.73 47.63 6.22v-39.51zm-51.77-8.73a200.865 200.865 0 01-34.87-14.47l-19.77 34.24a239.434 239.434 0 0044.41 18.41l10.23-38.18zm-47.73-21.91a202.083 202.083 0 01-29.92-22.98l-27.94 27.94a241.317 241.317 0 0038.1 29.28l19.76-34.24zm-40.45-33.51a202.683 202.683 0 01-22.99-29.94L51.37 382.7a241.4 241.4 0 0029.29 38.12l27.94-27.95zM78.18 350.1a199.963 199.963 0 01-14.46-34.88l-38.19 10.24a239.07 239.07 0 0018.42 44.41l34.23-19.77zm-18.3-49.25a201.14 201.14 0 01-4.89-37.4H15.47c.49 16.34 2.62 32.27 6.22 47.64l38.19-10.24zm-4.89-52.3a201.65 201.65 0 014.89-37.4l-38.19-10.24c-3.6 15.37-5.73 31.3-6.22 47.64h39.52zm8.73-51.77c3.74-12.17 8.61-23.83 14.47-34.88l-34.24-19.77a238.392 238.392 0 00-18.42 44.41l38.19 10.24zm21.89-47.71c6.73-10.7 14.44-20.72 23-29.94L80.66 91.18a241.537 241.537 0 00-29.29 38.12l34.24 19.77zm33.53-40.46a202.29 202.29 0 0129.92-22.98l-19.77-34.25a241.317 241.317 0 00-38.1 29.28l27.95 27.95zm42.77-30.42a201.321 201.321 0 0134.87-14.47l-10.23-38.19a239.717 239.717 0 00-44.41 18.41l19.77 34.25zm49.24-18.31c12.09-2.75 24.6-4.42 37.4-4.89V15.47c-16.34.49-32.27 2.62-47.63 6.22l10.23 38.19zm52.3-4.89c12.82.47 25.32 2.14 37.4 4.89l10.23-38.19c-15.36-3.6-31.29-5.73-47.63-6.22v39.52zm51.77 8.73c12.16 3.74 23.82 8.61 34.87 14.47l19.77-34.25a239.624 239.624 0 00-44.4-18.41l-10.24 38.19zm47.73 21.91c10.69 6.72 20.7 14.42 29.91 22.98l27.96-27.95a242.236 242.236 0 00-38.1-29.28l-19.77 34.25zm40.36 33.42c8.68 9.33 16.39 19.38 23.08 30.01l34.24-19.76a241.996 241.996 0 00-29.29-38.12l-2 2-25.95 25.95-.08-.08zm30.51 42.85c14.07 26.51 22.1 56.03 23.19 86.65h39.52c-.49-16.34-2.62-32.27-6.22-47.63l-38.18 10.23c-1.11-4.86-2.39-9.65-3.85-14.37l38.19-10.23a239.527 239.527 0 00-18.41-44.42l-34.24 19.77zM256 68.76c103.41 0 187.25 83.83 187.25 187.24 0 103.41-83.84 187.25-187.25 187.25S68.76 359.41 68.76 256 152.59 68.76 256 68.76z"/></svg>