<?xml version="1.0" encoding="iso-8859-1"?>
<!-- Uploaded to: SVG Repo, www.svgrepo.com, Generator: SVG Repo Mixer Tools -->
<!DOCTYPE svg PUBLIC "-//W3C//DTD SVG 1.1//EN" "http://www.w3.org/Graphics/SVG/1.1/DTD/svg11.dtd">
<svg fill="#000000" version="1.1" id="Capa_1" xmlns="http://www.w3.org/2000/svg" xmlns:xlink="http://www.w3.org/1999/xlink" 
	 width="800px" height="800px" viewBox="0 0 60.731 60.731"
	 xml:space="preserve">
<g>
	<g>
		<path d="M36.347,33.47c-0.928-0.668-2.495-1.302-4.698-1.899v13.892c3.011-0.142,5.087-1.241,6.231-3.304
			c0.598-1.054,0.898-2.278,0.898-3.668C38.783,36.287,37.969,34.613,36.347,33.47z"/>
		<path d="M24.172,15.822c-0.986,1.32-1.479,2.706-1.479,4.148c0,1.745,0.582,3.107,1.743,4.094c1.166,0.987,2.73,1.673,4.702,2.061
			V13.711C26.813,13.8,25.157,14.503,24.172,15.822z"/>
		<path d="M30.366,0C13.595,0,0,13.594,0,30.365c0,16.771,13.594,30.366,30.366,30.366c16.771,0,30.365-13.596,30.365-30.366
			C60.731,13.594,47.137,0,30.366,0z M38.966,47.18c-1.692,1.092-4.129,1.812-7.317,2.166v5.126h-2.511v-5.126
			c-5.123-0.335-8.603-2.146-10.435-5.442c-1.001-1.776-1.504-4.181-1.504-7.21h4.674c0.143,2.413,0.523,4.174,1.145,5.283
			c1.101,1.995,3.142,3.108,6.12,3.357V30.938c-3.822-0.724-6.646-1.929-8.467-3.621c-1.822-1.69-2.732-4.034-2.732-7.026
			c0-2.677,0.98-5.09,2.945-7.236c1.964-2.149,4.716-3.242,8.255-3.277V6.265h2.511v3.459c3.503,0.245,6.195,1.277,8.07,3.095
			c1.875,1.817,2.855,4.22,2.947,7.206h-4.622c-0.123-1.339-0.485-2.491-1.081-3.46c-1.113-1.779-2.879-2.711-5.311-2.8v12.863
			c4.086,1.143,6.861,2.22,8.321,3.221c2.38,1.652,3.568,4.103,3.568,7.344C43.532,41.88,42.009,45.206,38.966,47.18z"/>
	</g>
</g>
</svg>