<?xml version='1.0' encoding='utf-8'?>
<!DOCTYPE svg PUBLIC '-//W3C//DTD SVG 1.1//EN' 'http://www.w3.org/Graphics/SVG/1.1/DTD/svg11.dtd'>
<!-- Uploaded to: SVG Repo, www.svgrepo.com, Generator: SVG Repo Mixer Tools -->
<svg fill="#000000" height="800px" width="800px" version="1.1" xmlns="http://www.w3.org/2000/svg" viewBox="0 0 512 512" xmlns:xlink="http://www.w3.org/1999/xlink" enable-background="new 0 0 512 512">
  <g>
    <g>
      <path d="m228.1,169.3c-4,5.4-6,11.5-6,18 0,6 1.8,11.6 5.4,16.8 3.6,5.2 9.1,9.3 16.5,12.5v-58.9c-6.6,2.3-11.9,6.2-15.9,11.6z"/>
      <path d="m320.6,350.5c-12.4,14.1-29.7,22.7-51.8,25.9v31.8h-24.7v-31c-19.6-2.4-35.6-9.7-47.8-21.9s-20.1-29.5-23.5-51.9l44.4-4.8c1.8,9.1 5.2,16.9 10.2,23.5 5,6.6 10.5,11.3 16.7,14.3v-71.3c-22.2-6.4-38.5-16-48.9-28.8-10.4-12.9-15.6-28.5-15.6-46.9 0-18.6 5.9-34.2 17.6-46.9 11.7-12.6 27.4-19.9 46.9-21.9v-16.8h24.7v16.8c18,2.2 32.4,8.3 43,18.5 10.7,10.2 17.5,23.7 20.4,40.7l-43,5.6c-2.6-13.4-9.4-22.5-20.4-27.2v66.5c27.2,7.4 45.8,16.9 55.6,28.7 9.9,11.7 14.8,26.8 14.8,45.2-5.68434e-14,20.5-6.2,37.8-18.6,51.9zm-64.6-339.5c-135.1,0-245,109.9-245,245s109.9,245 245,245 245-109.9 245-245-109.9-245-245-245z"/>
      <path d="m268.8,272.4v66.4c8.5-1.6 15.4-5.5 20.8-11.8 5.3-6.3 8-13.7 8-22.2 0-7.6-2.2-14.1-6.7-19.7-4.6-5.5-11.9-9.7-22.1-12.7z"/>
    </g>
  </g>
</svg>