<?xml version="1.0" encoding="iso-8859-1"?>
<!-- Uploaded to: SVG Repo, www.svgrepo.com, Generator: SVG Repo Mixer Tools -->
<svg fill="#000000" height="800px" width="800px" version="1.1" id="Layer_1" xmlns="http://www.w3.org/2000/svg" xmlns:xlink="http://www.w3.org/1999/xlink" 
	 viewBox="0 0 512 512" xml:space="preserve">
<g>
	<g>
		<path d="M256,0C114.842,0,0,114.842,0,256s114.842,256,256,256s256-114.842,256-256S397.158,0,256,0z M256,478.609
			c-122.746,0-222.609-99.862-222.609-222.609S133.254,33.391,256,33.391S478.609,133.254,478.609,256S378.746,478.609,256,478.609z
			"/>
	</g>
</g>
<g>
	<g>
		<path d="M256,72.348C154.734,72.348,72.348,154.734,72.348,256S154.734,439.652,256,439.652S439.652,357.266,439.652,256
			S357.266,72.348,256,72.348z M256,406.261c-82.854,0-150.261-67.407-150.261-150.261S173.146,105.739,256,105.739
			S406.261,173.146,406.261,256S338.854,406.261,256,406.261z"/>
	</g>
</g>
<g>
	<g>
		<path d="M263.802,241.24c-17.516-9.258-35.629-18.834-35.629-29.762c0-15.343,12.483-27.826,27.826-27.826
			s27.826,12.483,27.826,27.826c0,9.22,7.475,16.696,16.696,16.696s16.696-7.475,16.696-16.696
			c0-27.967-18.858-51.596-44.522-58.884v-7.898c0-9.22-7.475-16.696-16.696-16.696c-9.22,0-16.696,7.475-16.696,16.696v7.898
			c-25.663,7.287-44.522,30.917-44.522,58.884c0,31.048,29.617,46.703,53.416,59.283c17.516,9.258,35.627,18.833,35.627,29.761
			c0,15.343-12.483,27.826-27.826,27.826s-27.826-12.483-27.826-27.826c0-9.22-7.475-16.696-16.696-16.696
			s-16.696,7.475-16.696,16.696c0,27.967,18.858,51.596,44.522,58.884v7.898c0,9.22,7.475,16.696,16.696,16.696
			c9.22,0,16.696-7.475,16.696-16.696v-7.898c25.663-7.287,44.522-30.917,44.522-58.884
			C317.217,269.474,287.6,253.82,263.802,241.24z"/>
	</g>
</g>
</svg>