<svg class="svg-icon" style="width: 1em; height: 1em;vertical-align: middle;fill: currentColor;overflow: hidden;" viewBox="0 0 1024 1024" version="1.1" xmlns="http://www.w3.org/2000/svg"><path d="M512 42.666667a469.333333 469.333333 0 1 0 469.333333 469.333333A469.333333 469.333333 0 0 0 512 42.666667z m0 853.333333a384 384 0 1 1 384-384 384 384 0 0 1-384 384z m85.333333-597.333333V256a42.666667 42.666667 0 0 0-85.333333 0v42.666667h-42.666667V256a42.666667 42.666667 0 0 0-85.333333 0v42.666667H341.333333a42.666667 42.666667 0 0 0 0 85.333333h42.666667v256H341.333333a42.666667 42.666667 0 0 0 0 85.333333h42.666667v42.666667a42.666667 42.666667 0 0 0 85.333333 0v-42.666667h42.666667v42.666667a42.666667 42.666667 0 0 0 85.333333 0v-42.666667a128 128 0 0 0 128-128 128 128 0 0 0-32.853333-85.333333 128 128 0 0 0 32.853333-85.333333 128 128 0 0 0-128-128z m0 341.333333h-128v-85.333333h128a42.666667 42.666667 0 0 1 0 85.333333z m0-170.666667h-128V384h128a42.666667 42.666667 0 0 1 0 85.333333z"  /></svg>