<svg fill="none" width="28" viewBox="0 0 24 24" height="28" aria-hidden="true" style="color: rgb(11, 15, 20);"><path fill="hsl(211, 28%, 6%)" fill-rule="evenodd" clip-rule="evenodd" d="M9.186 2.512a1.5 1.5 0 0 0-1.674 1.302L7.176 6.5H4a1.5 1.5 0 1 0 0 3h2.8l-.624 5H4a1.5 1.5 0 0 0 0 3h1.8l-.288 2.314a1.5 1.5 0 1 0 2.976.372l.336-2.686h4.977l-.29 2.314a1.5 1.5 0 1 0 2.977.372l.336-2.686H20a1.5 1.5 0 0 0 0-3h-2.8l.624-5H20a1.5 1.5 0 0 0 0-3h-1.8l.288-2.314a1.5 1.5 0 1 0-2.976-.372L15.176 6.5h-4.977l.29-2.314a1.5 1.5 0 0 0-1.303-1.674ZM9.2 14.5l.625-5h4.977l-.625 5H9.199Z"></path></svg>