<?xml version="1.0" encoding="utf-8"?><!-- Uploaded to: SVG Repo, www.svgrepo.com, Generator: SVG Repo Mixer Tools -->
<svg width="800px" height="800px" viewBox="0 0 24 24" fill="none" xmlns="http://www.w3.org/2000/svg">
<path d="M6.70504 10.7092C6.8501 10.5689 7.01205 10.4438 7.1797 10.3321C7.50489 10.1153 7.80058 10 8 10C8.19942 10 8.49511 10.1153 8.8203 10.3321C9.07494 10.5018 9.26866 10.6837 9.2931 10.7074C9.68451 11.0859 10.3173 11.0969 10.7071 10.7071C11.0976 10.3166 11.0976 9.68342 10.7071 9.29289C10.4723 9.05848 10.2052 8.85164 9.9297 8.66795C9.50489 8.38475 8.80058 8 8 8C7.19942 8 6.49511 8.38475 6.0703 8.66795C5.79505 8.85145 5.52844 9.05816 5.29363 9.29216C4.90926 9.67754 4.90613 10.3203 5.29289 10.7071C5.68258 11.0968 6.31431 11.0972 6.70504 10.7092Z" fill="#0F0F0F"/>
<path d="M8.88875 13.5414C8.63822 13.0559 8.0431 12.8607 7.55301 13.1058C7.05903 13.3528 6.8588 13.9535 7.10579 14.4474C7.18825 14.6118 7.29326 14.7659 7.40334 14.9127C7.58615 15.1565 7.8621 15.4704 8.25052 15.7811C9.04005 16.4127 10.2573 17.0002 12.0002 17.0002C13.7431 17.0002 14.9604 16.4127 15.7499 15.7811C16.1383 15.4704 16.4143 15.1565 16.5971 14.9127C16.7076 14.7654 16.8081 14.6113 16.8941 14.4485C17.1387 13.961 16.9352 13.3497 16.4474 13.1058C15.9573 12.8607 15.3622 13.0559 15.1117 13.5414C15.0979 13.5663 14.9097 13.892 14.5005 14.2194C14.0401 14.5877 13.2573 15.0002 12.0002 15.0002C10.7431 15.0002 9.96038 14.5877 9.49991 14.2194C9.09071 13.892 8.90255 13.5663 8.88875 13.5414Z" fill="#0F0F0F"/>
<path fill-rule="evenodd" clip-rule="evenodd" d="M12 23C18.0751 23 23 18.0751 23 12C23 5.92487 18.0751 1 12 1C5.92487 1 1 5.92487 1 12C1 18.0751 5.92487 23 12 23ZM12 20.9932C7.03321 20.9932 3.00683 16.9668 3.00683 12C3.00683 7.03321 7.03321 3.00683 12 3.00683C16.9668 3.00683 20.9932 7.03321 20.9932 12C20.9932 16.9668 16.9668 20.9932 12 20.9932Z" fill="#0F0F0F"/>
<path d="M14.705 10.7092C14.8501 10.5689 15.0121 10.4438 15.1797 10.3321C15.5049 10.1153 15.8006 10 16 10C16.1994 10 16.4951 10.1153 16.8203 10.3321C17.0749 10.5018 17.2687 10.6837 17.2931 10.7074C17.6845 11.0859 18.3173 11.0969 18.7071 10.7071C19.0976 10.3166 19.0976 9.68342 18.7071 9.29289C18.4723 9.05848 18.2052 8.85164 17.9297 8.66795C17.5049 8.38475 16.8006 8 16 8C15.1994 8 14.4951 8.38475 14.0703 8.66795C13.795 8.85145 13.5284 9.05816 13.2936 9.29216C12.9093 9.67754 12.9061 10.3203 13.2929 10.7071C13.6826 11.0968 14.3143 11.0972 14.705 10.7092Z" fill="#0F0F0F"/>
</svg>