<svg xmlns="http://www.w3.org/2000/svg" viewBox="0 0 32 32"><title>image android app aplication phone</title><g id="image_android_app_aplication_phone" data-name="image android app aplication phone"><path d="M30.56,8.47a8,8,0,0,0-7-7,64.29,64.29,0,0,0-15.06,0,8,8,0,0,0-7,7,64.29,64.29,0,0,0,0,15.06,8,8,0,0,0,7,7,64.29,64.29,0,0,0,15.06,0,8,8,0,0,0,7-7A64.29,64.29,0,0,0,30.56,8.47ZM3.42,8.7A6,6,0,0,1,8.7,3.42a63.65,63.65,0,0,1,14.6,0A6,6,0,0,1,28.58,8.7a64.23,64.23,0,0,1,.17,12.63l-6-6a1,1,0,0,0-1.42,0L18,18.59l-5.29-5.3a1,1,0,0,0-1.42,0l-8,8A64.23,64.23,0,0,1,3.42,8.7ZM23.3,28.58a63.65,63.65,0,0,1-14.6,0,6,6,0,0,1-5.16-4.71L12,15.41l7.29,7.3a1,1,0,0,0,1.42-1.42L19.41,20,22,17.41l6.46,6.46A6,6,0,0,1,23.3,28.58Z"/><path d="M18,14a3,3,0,1,0-3-3A3,3,0,0,0,18,14Zm0-4a1,1,0,1,1-1,1A1,1,0,0,1,18,10Z"/></g></svg>