<svg version="1.1" id="Capa_1" xmlns="http://www.w3.org/2000/svg" xmlns:xlink="http://www.w3.org/1999/xlink" x="0px" y="0px"
	 viewBox="0 0 57.129 57.129" stroke-width="0" style="fill:var(--smc-main-link-color);" xml:space="preserve">
<path d="M57.047,27.997v19.219c0,5.466-4.447,9.913-9.913,9.913H9.995c-5.466,0-9.913-4.447-9.913-9.913V27.997c0-0.552,0.448-1,1-1
	s1,0.448,1,1v19.219c0,4.363,3.55,7.913,7.913,7.913h37.139c4.363,0,7.913-3.55,7.913-7.913V27.997c0-0.552,0.448-1,1-1
	S57.047,27.444,57.047,27.997z M10.094,18.773c-0.105-0.255-0.274-0.927,0.446-1.646L27.07,0.598c0.796-0.797,2.193-0.797,2.99,0
	l16.529,16.529c0.72,0.719,0.551,1.391,0.446,1.646c-0.106,0.255-0.461,0.849-1.479,0.849h-6.499c-0.061,0-0.114,0.053-0.114,0.114
	v21.001c0,1.166-0.948,2.114-2.114,2.114H20.301c-1.166,0-2.114-0.948-2.114-2.114V19.736c0-0.061-0.053-0.114-0.114-0.114h-6.499
	C10.556,19.622,10.2,19.028,10.094,18.773z M12.876,17.62l5.197,0.001c1.166,0,2.114,0.948,2.114,2.114v21.001
	c0,0.061,0.053,0.114,0.114,0.114h16.526c0.061,0,0.114-0.053,0.114-0.114V19.736c0-1.166,0.948-2.114,2.114-2.114h5.196
	L28.645,2.012c0,0-0.099,0-0.142,0c-0.012,0-0.02,0-0.02,0L12.876,17.62z"/>
<g>
</g>
<g>
</g>
<g>
</g>
<g>
</g>
<g>
</g>
<g>
</g>
<g>
</g>
<g>
</g>
<g>
</g>
<g>
</g>
<g>
</g>
<g>
</g>
<g>
</g>
<g>
</g>
<g>
</g>
</svg>
