<svg id="Capa_1" enable-background="new 0 0 512 512" height="512" viewBox="0 0 512 512" width="512" stroke-width="0" style="fill:var(--smc-main-link-color);"  xmlns="http://www.w3.org/2000/svg"><g><path d="m447.997 204.667v-204.667h-384v204.667h-63.997v307.333h512v-307.333zm-30-174.667v239.853l-161.996 121.89-162.004-121.894v-239.849zm64.003 436.942-138.023-103.851 104.02-78.267v-50.156h34.003zm-225.999-37.656 63.028-47.424 133.087 100.138h-392.231l133.088-100.138zm-87.977-66.195-138.024 103.851v-232.275h33.997v50.152z"/><path d="m251.244 292.334c59.916 0 108.661-48.745 108.661-108.661 0-19.75-5.299-38.285-14.546-54.262l20.037-21.523-21.958-20.441-16.805 18.051c-19.554-18.864-46.138-30.486-75.389-30.486-59.916 0-108.661 48.745-108.661 108.661s48.745 108.661 108.661 108.661zm0-187.322c21.365 0 40.756 8.573 54.946 22.446l-51.561 55.385-31.817-32.082-21.301 21.125 53.801 54.25 68.273-73.336c4.063 9.484 6.32 19.919 6.32 30.873 0 43.374-35.287 78.661-78.661 78.661s-78.661-35.287-78.661-78.661 35.287-78.661 78.661-78.661z"/></g></svg>