<svg class="svg-icon" style="width: 1.0029296875em; height: 1em;vertical-align: middle;fill: currentColor;overflow: hidden;" viewBox="0 0 1027 1024" version="1.1" xmlns="http://www.w3.org/2000/svg"><path d="M482.909091 530.618182c18.618182 9.309091 37.236364 13.963636 65.163636 0l456.145455-223.418182c27.927273-13.963636 32.581818-51.2-4.654546-65.163636l-456.145454-181.527273c-27.927273-13.963636-41.890909-9.309091-65.163637 0l-460.8 186.181818c-23.272727 18.618182-23.272727 41.890909 0 55.854546l465.454546 228.072727zM77.963636 269.963636l423.563637-172.218181c13.963636-4.654545 23.272727-4.654545 32.581818 0l423.563636 167.563636c4.654545 0 4.654545 4.654545 0 9.309091l-418.909091 204.8c-18.618182 9.309091-23.272727 9.309091-41.890909 4.654545l-418.909091-214.109091c-4.654545 4.654545-4.654545 0 0 0z" fill="" /><path d="M1004.218182 484.072727c-4.654545 0-9.309091 0-13.963637 4.654546l-451.490909 228.072727c-18.618182 9.309091-23.272727 9.309091-41.890909 4.654545L40.727273 493.381818c-4.654545-4.654545-9.309091-4.654545-13.963637-4.654545-13.963636 0-23.272727 9.309091-23.272727 23.272727 0 9.309091 4.654545 13.963636 9.309091 18.618182l4.654545 4.654545 460.8 232.727273c18.618182 9.309091 37.236364 13.963636 65.163637 0l456.145454-228.072727c4.654545-4.654545 9.309091-4.654545 13.963637-9.309091 4.654545-4.654545 9.309091-9.309091 9.309091-18.618182 4.654545-18.618182-4.654545-27.927273-18.618182-27.927273z" fill="" /><path d="M1004.218182 688.872727c-4.654545 0-9.309091 0-13.963637 4.654546l-451.490909 228.072727c-18.618182 9.309091-23.272727 9.309091-41.890909 4.654545L40.727273 698.181818c-4.654545-4.654545-9.309091-4.654545-13.963637-4.654545-13.963636-4.654545-23.272727 4.654545-23.272727 18.618182 0 9.309091 4.654545 13.963636 13.963636 18.618181l4.654546 4.654546 460.8 232.727273c18.618182 9.309091 37.236364 13.963636 65.163636 0l456.145455-228.072728c4.654545-4.654545 9.309091-4.654545 13.963636-9.309091 4.654545-4.654545 9.309091-9.309091 9.309091-18.618181 0-13.963636-9.309091-23.272727-23.272727-23.272728z" fill="" /></svg>