<svg class="svg-icon" style="width: 1em; height: 1em;vertical-align: middle;fill: currentColor;overflow: hidden;" viewBox="0 0 1024 1024" version="1.1" xmlns="http://www.w3.org/2000/svg"><path d="M512 554.666667c-8.533333 0-12.8 0-17.066667-4.266667l-426.666666-213.333333C51.2 328.533333 42.666667 315.733333 42.666667 298.666667s8.533333-29.866667 25.6-38.4l426.666666-213.333334c12.8-4.266667 25.6-4.266667 38.4 0l426.666667 213.333334c12.8 8.533333 21.333333 21.333333 21.333333 38.4s-8.533333 29.866667-25.6 38.4l-426.666666 213.333333c-4.266667 4.266667-8.533333 4.266667-17.066667 4.266667zM179.2 298.666667l332.8 166.4L844.8 298.666667 512 132.266667 179.2 298.666667zM512 981.333333c-8.533333 0-12.8 0-17.066667-4.266666l-426.666666-213.333334c-21.333333-8.533333-29.866667-34.133333-17.066667-55.466666s34.133333-29.866667 55.466667-17.066667l409.6 204.8 409.6-204.8c21.333333-8.533333 46.933333 0 55.466666 17.066667 8.533333 21.333333 0 46.933333-17.066666 55.466666l-426.666667 213.333334c-12.8 4.266667-17.066667 4.266667-25.6 4.266666z"  /><path d="M512 768c-8.533333 0-12.8 0-17.066667-4.266667l-426.666666-213.333333c-21.333333-8.533333-29.866667-34.133333-17.066667-55.466667 8.533333-21.333333 34.133333-29.866667 55.466667-17.066666l409.6 204.8 409.6-204.8c21.333333-8.533333 46.933333 0 55.466666 17.066666 8.533333 21.333333 0 46.933333-17.066666 55.466667l-426.666667 213.333333c-12.8 4.266667-17.066667 4.266667-25.6 4.266667z"  /></svg>