<svg class="svg-icon" style="width: 1em;height: 1em;vertical-align: middle;fill: currentColor;overflow: hidden;" viewBox="0 0 1024 1024" version="1.1" xmlns="http://www.w3.org/2000/svg"><path d="M510.3 754.4c-22.9 0-45.7-7.5-63.6-22.6L91.5 537.2l-1.9-1.7C55.8 505.1 51.7 456 80 421.1l34.7 28.2c-12.7 15.7-11.3 36.9 3.1 51.3L472.6 695l1.9 1.7c19.4 17.4 52.1 17.5 71.5 0l1.9-1.7 354.8-194.3c14.4-14.4 15.8-35.6 3.1-51.3l34.7-28.2c28.3 34.8 24.2 84-9.6 114.3l-1.9 1.7-355.2 194.6c-17.8 15-40.7 22.6-63.5 22.6z"  /><path d="M510.3 946.6c-22.9 0-45.7-7.5-63.6-22.6L91.5 729.4l-1.9-1.7c-33.7-30.4-37.8-79.5-9.6-114.3l34.7 28.2c-12.7 15.7-11.3 36.9 3.1 51.3l354.8 194.3 1.9 1.7c19.4 17.4 52.1 17.5 71.5 0l1.9-1.7 354.8-194.3c14.4-14.4 15.8-35.6 3.1-51.3l34.7-28.2c28.3 34.8 24.2 84-9.6 114.3l-1.9 1.7L573.8 924c-17.8 15.1-40.7 22.6-63.5 22.6zM916.1 275.6L561 85.6c-28-25.2-73.4-25.2-101.4 0l-355.1 190c-25.3 22.8-27.7 58.4-7.2 83.6 2.2 2.7 4.5 5.2 7.2 7.7l56.1 30.7 299 163.8c28 25.2 73.4 25.2 101.4 0l299-163.8 56.1-30.7c2.7-2.4 5-5 7.2-7.7 20.4-25.2 18.1-60.8-7.2-83.6z"  /></svg>